<?xml version="1.0" standalone="no"?>
<!DOCTYPE svg PUBLIC "-//W3C//DTD SVG 20010904//EN"
 "http://www.w3.org/TR/2001/REC-SVG-20010904/DTD/svg10.dtd">
<svg version="1.0" xmlns="http://www.w3.org/2000/svg"
 width="500.000000pt" height="500.000000pt" viewBox="0 0 500.000000 500.000000"
 preserveAspectRatio="xMidYMid meet">

<g transform="translate(0.000000,500.000000) scale(0.100000,-0.100000)"
fill="#000000" stroke="none">
<path d="M1305 4510 c-294 -22 -524 -150 -674 -375 -57 -85 -82 -137 -110
-231 -52 -174 -52 -187 -48 -1433 4 -1244 4 -1235 57 -1391 25 -76 99 -222
101 -200 0 8 5 1 10 -17 7 -24 14 -31 26 -26 10 4 14 2 10 -4 -4 -6 -4 -18 -1
-27 5 -13 9 -14 20 -5 12 10 13 8 8 -6 -6 -13 -4 -16 5 -10 10 5 11 2 7 -13
-6 -18 -3 -20 14 -17 17 3 19 1 11 -8 -7 -9 -4 -12 13 -12 12 1 29 5 37 10 11
6 12 5 2 -6 -15 -15 -17 -33 -4 -25 16 10 61 -33 54 -52 -6 -16 -6 -16 11 0
19 19 31 24 21 9 -3 -5 5 -13 17 -17 13 -3 34 -14 48 -23 21 -14 112 -46 218
-76 106 -30 219 -33 1252 -29 1083 3 1312 10 1442 42 56 14 80 16 89 8 9 -8
10 -8 5 2 -6 11 5 17 27 13 4 0 7 3 7 8 0 5 15 14 33 21 17 7 42 22 55 33 12
11 22 17 22 13 0 -4 18 6 39 23 21 17 42 31 46 31 4 0 18 9 32 20 18 14 29 17
38 10 9 -8 11 -4 7 15 -3 18 0 25 12 25 9 0 16 6 16 13 0 7 9 18 20 25 11 7
20 22 20 35 0 16 3 18 9 9 6 -11 10 -8 14 10 4 12 20 38 37 56 16 18 30 40 30
48 0 9 5 12 11 8 8 -4 9 0 4 15 -4 14 -2 21 5 19 16 -4 25 13 54 112 45 154
48 249 44 1465 -4 1038 -6 1136 -22 1204 -90 377 -323 611 -685 688 -67 15
-212 17 -1246 19 -643 1 -1215 -2 -1270 -6z m1266 -580 c83 -15 191 -73 240
-128 23 -26 58 -81 78 -122 33 -69 35 -82 36 -172 l1 -96 83 -60 c128 -91 196
-156 288 -271 86 -109 160 -245 202 -372 l22 -66 44 5 c114 12 263 -45 342
-131 165 -181 161 -425 -8 -598 -131 -132 -311 -163 -488 -83 l-60 26 -68 -61
c-96 -88 -279 -209 -408 -271 -228 -109 -436 -163 -676 -175 l-135 -7 -14 -32
c-7 -17 -43 -61 -79 -97 -59 -58 -75 -68 -148 -92 -108 -35 -188 -36 -290 -2
-126 43 -201 112 -260 241 -52 115 -38 284 33 389 l26 38 -32 80 c-54 136 -73
243 -73 402 1 184 30 318 108 497 116 263 362 512 635 642 41 20 80 36 86 36
7 0 13 30 16 84 10 192 140 345 331 392 66 16 101 17 168 4z"/>
<path d="M1998 3266 c-129 -66 -174 -99 -294 -216 -168 -163 -276 -364 -325
-605 -18 -89 -16 -286 4 -370 23 -95 57 -177 71 -171 122 54 138 58 236 54 88
-3 104 -7 174 -41 136 -68 226 -198 242 -351 l7 -66 50 0 c74 0 245 27 374 60
135 34 268 92 416 180 110 65 271 189 281 216 3 8 -3 32 -13 52 -64 126 -67
271 -9 395 35 73 74 120 138 169 l34 27 -12 48 c-17 66 -80 196 -142 291 -62
97 -232 264 -312 306 l-54 28 -56 -55 c-103 -103 -250 -153 -380 -129 -120 22
-220 90 -303 206 l-20 27 -107 -55z"/>
<path d="M4366 904 c-23 -23 -20 -30 4 -9 11 10 20 20 20 22 0 7 -9 2 -24 -13z"/>
</g>
</svg>
